ffmpeg started on 2016-12-05 at 06:41:50
Report written to "Output/x264/results/ffmpeg/crowd_run_2160p50veryfast11000k.log"
Command line:
Tools/ffmpeg/ffmpeg -benchmark -y -i Input/y4m/crowd_run_2160p50.y4m -c:v libx264 -preset veryfast -b:v 11000k -an Output/x264/encoded/crowd_run_2160p50veryfast11000k.mkv
ffmpeg version N-82227-gdb23fde Copyright (c) 2000-2016 the FFmpeg developers
  built with gcc 5.4.0 (Ubuntu 5.4.0-6ubuntu1~16.04.2) 20160609
  configuration: --prefix=/home/jaroslav/ffmpeg_build --pkg-config-flags=--static --extra-cflags=-I/home/jaroslav/ffmpeg_build/include --extra-ldflags=-L/home/jaroslav/ffmpeg_build/lib --bindir=/home/jaroslav/bin --enable-gpl --enable-libass --enable-libfdk-aac --enable-libfreetype --enable-libmp3lame --enable-libopus --enable-libtheora --enable-libvorbis --enable-libvpx --enable-libx264 --enable-libx265 --enable-nvenc --enable-libmfx --enable-libxvid --enable-libgsm --enable-libopencore-amrnb --enable-version3 --enable-nonfree
  libavutil      55. 35.100 / 55. 35.100
  libavcodec     57. 66.101 / 57. 66.101
  libavformat    57. 57.100 / 57. 57.100
  libavdevice    57.  2.100 / 57.  2.100
  libavfilter     6. 66.100 /  6. 66.100
  libswscale      4.  3.100 /  4.  3.100
  libswresample   2.  4.100 /  2.  4.100
  libpostproc    54.  2.100 / 54.  2.100
Input #0, yuv4mpegpipe, from 'Input/y4m/crowd_run_2160p50.y4m':
  Duration: 00:00:10.00, start: 0.000000, bitrate: 4976642 kb/s
    Stream #0:0: Video: rawvideo (I420 / 0x30323449), yuv420p(progressive), 3840x2160, SAR 1:1 DAR 16:9, 50 fps, 50 tbr, 50 tbn, 50 tbc
[libx264 @ 0x3dc11c0] using SAR=1/1
[libx264 @ 0x3dc11c0] using cpu capabilities: MMX2 SSE2Fast SSSE3 SSE4.2 AVX FMA3 AVX2 LZCNT BMI2
[libx264 @ 0x3dc11c0] profile High, level 5.2
[libx264 @ 0x3dc11c0] 264 - core 148 - H.264/MPEG-4 AVC codec - Copyleft 2003-2016 - http://www.videolan.org/x264.html - options: cabac=1 ref=1 deblock=1:0:0 analyse=0x3:0x113 me=hex subme=2 psy=1 psy_rd=1.00:0.00 mixed_ref=0 me_range=16 chroma_me=1 trellis=0 8x8dct=1 cqm=0 deadzone=21,11 fast_pskip=1 chroma_qp_offset=0 threads=6 lookahead_threads=2 sliced_threads=0 nr=0 decimate=1 interlaced=0 bluray_compat=0 constrained_intra=0 bframes=3 b_pyramid=2 b_adapt=1 b_bias=0 direct=1 weightb=1 open_gop=0 weightp=1 keyint=250 keyint_min=25 scenecut=40 intra_refresh=0 rc_lookahead=10 rc=abr mbtree=1 bitrate=11000 ratetol=1.0 qcomp=0.60 qpmin=0 qpmax=69 qpstep=4 ip_ratio=1.40 aq=1:1.00
Output #0, matroska, to 'Output/x264/encoded/crowd_run_2160p50veryfast11000k.mkv':
  Metadata:
    encoder         : Lavf57.57.100
    Stream #0:0: Video: h264 (libx264) (H264 / 0x34363248), yuv420p, 3840x2160 [SAR 1:1 DAR 16:9], q=-1--1, 11000 kb/s, 50 fps, 1k tbn, 50 tbc
    Metadata:
      encoder         : Lavc57.66.101 libx264
    Side data:
      cpb: bitrate max/min/avg: 0/0/11000000 buffer size: 0 vbv_delay: -1
Stream mapping:
  Stream #0:0 -> #0:0 (rawvideo (native) -> h264 (libx264))
Press [q] to stop, [?] for help
frame=   14 fps=0.0 q=0.0 size=       0kB time=00:00:00.00 bitrate=N/A speed=   0x    frame=   25 fps= 21 q=42.0 size=       1kB time=00:00:00.04 bitrate= 143.0kbits/s speed=0.0339x    frame=   38 fps= 22 q=47.0 size=       1kB time=00:00:00.30 bitrate=  19.5kbits/s speed=0.172x    frame=   52 fps= 23 q=45.0 size=       1kB time=00:00:00.58 bitrate=  10.1kbits/s speed=0.257x    frame=   66 fps= 24 q=45.0 size=       1kB time=00:00:00.86 bitrate=   6.8kbits/s speed=0.307x    frame=   80 fps= 24 q=44.0 size=       1kB time=00:00:01.14 bitrate=   5.1kbits/s speed=0.345x    frame=   87 fps= 22 q=44.0 size=       1kB time=00:00:01.28 bitrate=   4.6kbits/s speed=0.326x    frame=  102 fps= 23 q=43.0 size=       1kB time=00:00:01.58 bitrate=   3.7kbits/s speed=0.353x    frame=  116 fps= 23 q=43.0 size=       1kB time=00:00:01.86 bitrate=   3.2kbits/s speed=0.372x    frame=  130 fps= 23 q=43.0 size=       1kB time=00:00:02.14 bitrate=   2.7kbits/s speed=0.386x    frame=  142 fps= 23 q=43.0 size=       1kB time=00:00:02.38 bitrate=   2.5kbits/s speed=0.393x    frame=  156 fps= 24 q=43.0 size=       1kB time=00:00:02.66 bitrate=   2.2kbits/s speed=0.405x    frame=  169 fps= 24 q=42.0 size=       1kB time=00:00:02.92 bitrate=   2.0kbits/s speed=0.413x    frame=  182 fps= 24 q=42.0 size=       1kB time=00:00:03.18 bitrate=   1.8kbits/s speed=0.418x    frame=  195 fps= 24 q=42.0 size=       1kB time=00:00:03.44 bitrate=   1.7kbits/s speed=0.423x    frame=  208 fps= 24 q=42.0 size=    5165kB time=00:00:03.70 bitrate=11431.8kbits/s speed=0.427x    frame=  214 fps= 23 q=42.0 size=    5165kB time=00:00:03.82 bitrate=11072.8kbits/s speed=0.415x    frame=  227 fps= 23 q=42.0 size=    5165kB time=00:00:04.08 bitrate=10367.4kbits/s speed=0.42x    frame=  241 fps= 23 q=42.0 size=    5165kB time=00:00:04.36 bitrate=9701.7kbits/s speed=0.414x    frame=  254 fps= 23 q=42.0 size=    5165kB time=00:00:04.62 bitrate=9155.9kbits/s speed=0.418x    frame=  266 fps= 23 q=39.0 size=    5165kB time=00:00:04.86 bitrate=8703.8kbits/s speed=0.42x    frame=  276 fps= 23 q=43.0 size=    6830kB time=00:00:05.06 bitrate=11055.6kbits/s speed=0.418x    frame=  289 fps= 23 q=43.0 size=    6830kB time=00:00:05.32 bitrate=10515.4kbits/s speed=0.416x    frame=  295 fps= 22 q=43.0 size=    6830kB time=00:00:05.44 bitrate=10283.4kbits/s speed=0.408x    frame=  301 fps= 22 q=43.0 size=    6830kB time=00:00:05.56 bitrate=10061.5kbits/s speed=0.402x    frame=  314 fps= 22 q=42.0 size=    6830kB time=00:00:05.82 bitrate=9612.1kbits/s speed=0.406x    frame=  327 fps= 22 q=42.0 size=    6830kB time=00:00:06.08 bitrate=9201.2kbits/s speed=0.409x    frame=  340 fps= 22 q=42.0 size=    6830kB time=00:00:06.34 bitrate=8823.9kbits/s speed=0.412x    frame=  352 fps= 22 q=43.0 size=    6830kB time=00:00:06.58 bitrate=8502.1kbits/s speed=0.414x    frame=  365 fps= 22 q=42.0 size=    6830kB time=00:00:06.84 bitrate=8179.0kbits/s speed=0.416x    frame=  379 fps= 22 q=42.0 size=    6830kB time=00:00:07.12 bitrate=7857.4kbits/s speed=0.42x    frame=  391 fps= 22 q=42.0 size=    6830kB time=00:00:07.36 bitrate=7601.2kbits/s speed=0.421x    frame=  404 fps= 22 q=42.0 size=    6830kB time=00:00:07.62 bitrate=7341.8kbits/s speed=0.423x    frame=  409 fps= 22 q=42.0 size=    6830kB time=00:00:07.72 bitrate=7246.8kbits/s speed=0.417x    frame=  422 fps= 22 q=42.0 size=    6830kB time=00:00:07.98 bitrate=7010.7kbits/s speed=0.419x    frame=  435 fps= 22 q=42.0 size=    6830kB time=00:00:08.24 bitrate=6789.5kbits/s speed=0.421x    frame=  448 fps= 22 q=42.0 size=    6830kB time=00:00:08.50 bitrate=6581.8kbits/s speed=0.423x    frame=  460 fps= 22 q=42.0 size=    6830kB time=00:00:08.74 bitrate=6401.1kbits/s speed=0.423x    frame=  466 fps= 22 q=42.0 size=   11985kB time=00:00:08.86 bitrate=11079.9kbits/s speed=0.419x    frame=  480 fps= 22 q=42.0 size=   11985kB time=00:00:09.14 bitrate=10740.5kbits/s speed=0.421x    frame=  492 fps= 22 q=42.0 size=   11985kB time=00:00:09.38 bitrate=10465.7kbits/s speed=0.422x    frame=  500 fps= 22 q=-1.0 Lsize=   13503kB time=00:00:09.94 bitrate=11127.5kbits/s speed=0.432x    
video:13499kB audio:0kB subtitle:0kB other streams:0kB global headers:0kB muxing overhead: 0.033373%
bench: utime=70.136s
bench: maxrss=1089776kB
[libx264 @ 0x3dc11c0] frame I:2     Avg QP:33.36  size:381468
[libx264 @ 0x3dc11c0] frame P:126   Avg QP:41.50  size: 59045
[libx264 @ 0x3dc11c0] frame B:372   Avg QP:44.00  size: 15106
[libx264 @ 0x3dc11c0] consecutive B-frames:  0.8%  0.0%  0.0% 99.2%
[libx264 @ 0x3dc11c0] mb I  I16..4: 18.2% 59.0% 22.7%
[libx264 @ 0x3dc11c0] mb P  I16..4:  6.2% 12.1%  0.0%  P16..4: 21.3%  7.7%  2.1%  0.0%  0.0%    skip:50.5%
[libx264 @ 0x3dc11c0] mb B  I16..4:  0.8%  0.6%  0.0%  B16..8: 13.4%  2.5%  0.1%  direct: 2.4%  skip:80.2%  L0:43.0% L1:54.0% BI: 3.0%
[libx264 @ 0x3dc11c0] final ratefactor: 34.37
[libx264 @ 0x3dc11c0] 8x8 transform intra:61.6% inter:47.9%
[libx264 @ 0x3dc11c0] coded y,uvDC,uvAC intra: 27.7% 44.1% 12.7% inter: 1.5% 5.0% 0.1%
[libx264 @ 0x3dc11c0] i16 v,h,dc,p: 45% 26% 20% 10%
[libx264 @ 0x3dc11c0] i8 v,h,dc,ddl,ddr,vr,hd,vl,hu: 19% 14% 37%  5%  4%  5%  5%  5%  5%
[libx264 @ 0x3dc11c0] i4 v,h,dc,ddl,ddr,vr,hd,vl,hu: 20% 17% 11%  9%  9%  9%  8%  9%  9%
[libx264 @ 0x3dc11c0] i8c dc,h,v,p: 71% 10% 17%  2%
[libx264 @ 0x3dc11c0] Weighted P-Frames: Y:1.6% UV:0.0%
[libx264 @ 0x3dc11c0] kb/s:11057.65
